# xmcd
#
# Track frame offsets: 
#        150
#        13112
#        29903
#        55371
#        73743
#        89841
#        104659
#        125973
#        139527
#        155082
#        174050
#
# Disc length: 2670 seconds
#
# Revision: 0
# Processed by: cddbd v1.5.2PL0 Copyright (c) Steve Scherf et al.
# Submitted via: ExactAudioCopy v0.99pb3
#
DISCID=a80a6c0b
DTITLE=Nikki James and The Flamethrowers - Cleanin' House
DYEAR=1999
DGENRE=Blues
TTITLE0=Cleanin' House
TTITLE1=Fat Girl Blues
TTITLE2=Felt So Right
TTITLE3=Married Wasn't All I Got
TTITLE4=Shame
TTITLE5=Gettin' Around
TTITLE6=Candyman
TTITLE7=24 Hours A Day
TTITLE8=Sugar Cone
TTITLE9=Ice Man
TTITLE10=Phone Call
EXTD=
EXTT0=
EXTT1=
EXTT2=
EXTT3=
EXTT4=
EXTT5=
EXTT6=
EXTT7=
EXTT8=
EXTT9=
EXTT10=
PLAYORDER=
